<mxfile host="app.diagrams.net" modified="2024-02-23T15:09:27.631Z" agent="Mozilla/5.0 (Windows NT 10.0; Win64; x64; rv:123.0) Gecko/20100101 Firefox/123.0" etag="ZibYahjOcAYEs0gzW3jH" version="23.1.6" type="device">
  <diagram name="Page-1" id="qgJCPPb9t1DpvhuaOG3K">
    <mxGraphModel dx="1222" dy="1622" grid="1" gridSize="10" guides="1" tooltips="1" connect="1" arrows="1" fold="1" page="1" pageScale="1" pageWidth="850" pageHeight="1100" math="0" shadow="0">
      <root>
        <mxCell id="0" />
        <mxCell id="1" parent="0" />
        <mxCell id="RMjqRhRsSfSvSt8cYRa8-1" value="" style="verticalLabelPosition=bottom;html=1;verticalAlign=top;align=center;strokeColor=none;fillColor=#00BEF2;shape=mxgraph.azure.user;" vertex="1" parent="1">
          <mxGeometry x="160" y="120" width="40" height="40" as="geometry" />
        </mxCell>
        <mxCell id="RMjqRhRsSfSvSt8cYRa8-10" style="edgeStyle=orthogonalEdgeStyle;rounded=0;orthogonalLoop=1;jettySize=auto;html=1;" edge="1" parent="1" source="RMjqRhRsSfSvSt8cYRa8-2" target="RMjqRhRsSfSvSt8cYRa8-7">
          <mxGeometry relative="1" as="geometry" />
        </mxCell>
        <mxCell id="RMjqRhRsSfSvSt8cYRa8-2" value="" style="verticalLabelPosition=bottom;html=1;verticalAlign=top;align=center;strokeColor=none;fillColor=#00BEF2;shape=mxgraph.azure.mobile_services;pointerEvents=1;" vertex="1" parent="1">
          <mxGeometry x="220" y="112" width="32.5" height="50" as="geometry" />
        </mxCell>
        <mxCell id="RMjqRhRsSfSvSt8cYRa8-37" style="edgeStyle=orthogonalEdgeStyle;rounded=0;orthogonalLoop=1;jettySize=auto;html=1;" edge="1" parent="1" source="RMjqRhRsSfSvSt8cYRa8-3" target="RMjqRhRsSfSvSt8cYRa8-36">
          <mxGeometry relative="1" as="geometry" />
        </mxCell>
        <mxCell id="RMjqRhRsSfSvSt8cYRa8-3" value="Login Token/ Sign In&lt;div&gt;&lt;br/&gt;&lt;/div&gt;" style="sketch=0;outlineConnect=0;fontColor=#232F3E;gradientColor=none;fillColor=#232F3D;strokeColor=none;dashed=0;verticalLabelPosition=bottom;verticalAlign=top;align=center;html=1;fontSize=12;fontStyle=0;aspect=fixed;pointerEvents=1;shape=mxgraph.aws4.saml_token;" vertex="1" parent="1">
          <mxGeometry x="520" y="30" width="50" height="50" as="geometry" />
        </mxCell>
        <mxCell id="RMjqRhRsSfSvSt8cYRa8-30" style="edgeStyle=orthogonalEdgeStyle;rounded=0;orthogonalLoop=1;jettySize=auto;html=1;" edge="1" parent="1" source="RMjqRhRsSfSvSt8cYRa8-5" target="RMjqRhRsSfSvSt8cYRa8-29">
          <mxGeometry relative="1" as="geometry" />
        </mxCell>
        <mxCell id="RMjqRhRsSfSvSt8cYRa8-5" value="Registry/Sign Up" style="sketch=0;outlineConnect=0;fontColor=#232F3E;gradientColor=none;strokeColor=#232F3E;fillColor=#ffffff;dashed=0;verticalLabelPosition=bottom;verticalAlign=top;align=center;html=1;fontSize=12;fontStyle=0;aspect=fixed;shape=mxgraph.aws4.resourceIcon;resIcon=mxgraph.aws4.registry;" vertex="1" parent="1">
          <mxGeometry x="520" y="162" width="60" height="60" as="geometry" />
        </mxCell>
        <mxCell id="RMjqRhRsSfSvSt8cYRa8-14" style="edgeStyle=orthogonalEdgeStyle;rounded=0;orthogonalLoop=1;jettySize=auto;html=1;" edge="1" parent="1" source="RMjqRhRsSfSvSt8cYRa8-7" target="RMjqRhRsSfSvSt8cYRa8-3">
          <mxGeometry relative="1" as="geometry" />
        </mxCell>
        <mxCell id="RMjqRhRsSfSvSt8cYRa8-15" style="edgeStyle=orthogonalEdgeStyle;rounded=0;orthogonalLoop=1;jettySize=auto;html=1;" edge="1" parent="1" source="RMjqRhRsSfSvSt8cYRa8-7" target="RMjqRhRsSfSvSt8cYRa8-5">
          <mxGeometry relative="1" as="geometry" />
        </mxCell>
        <mxCell id="RMjqRhRsSfSvSt8cYRa8-7" value="Dashboard" style="html=1;verticalLabelPosition=bottom;align=center;labelBackgroundColor=#ffffff;verticalAlign=top;strokeWidth=2;strokeColor=#0080F0;shadow=0;dashed=0;shape=mxgraph.ios7.icons.documents;" vertex="1" parent="1">
          <mxGeometry x="327.5" y="72" width="92.5" height="129" as="geometry" />
        </mxCell>
        <mxCell id="RMjqRhRsSfSvSt8cYRa8-12" value="Database&lt;br&gt;Loan" style="shape=datastore;whiteSpace=wrap;html=1;" vertex="1" parent="1">
          <mxGeometry x="904.46" y="36.5" width="175.69" height="164.5" as="geometry" />
        </mxCell>
        <mxCell id="RMjqRhRsSfSvSt8cYRa8-16" value="Repository&lt;br&gt;file" style="shape=image;html=1;verticalAlign=top;verticalLabelPosition=bottom;labelBackgroundColor=#ffffff;imageAspect=0;aspect=fixed;image=https://cdn0.iconfinder.com/data/icons/social-network-8/50/37-128.png" vertex="1" parent="1">
          <mxGeometry x="780" y="313" width="60" height="60" as="geometry" />
        </mxCell>
        <mxCell id="RMjqRhRsSfSvSt8cYRa8-18" value="Dukcapil" style="verticalLabelPosition=bottom;aspect=fixed;html=1;shape=mxgraph.salesforce.government;" vertex="1" parent="1">
          <mxGeometry x="610" y="308" width="51.6" height="60" as="geometry" />
        </mxCell>
        <mxCell id="RMjqRhRsSfSvSt8cYRa8-27" style="edgeStyle=orthogonalEdgeStyle;rounded=0;orthogonalLoop=1;jettySize=auto;html=1;shape=link;" edge="1" parent="1" source="RMjqRhRsSfSvSt8cYRa8-26" target="RMjqRhRsSfSvSt8cYRa8-12">
          <mxGeometry relative="1" as="geometry" />
        </mxCell>
        <mxCell id="RMjqRhRsSfSvSt8cYRa8-26" value="BackOffice" style="image;aspect=fixed;html=1;points=[];align=center;fontSize=12;image=img/lib/azure2/other/Dashboard_Hub.svg;" vertex="1" parent="1">
          <mxGeometry x="932.15" y="308" width="120.31" height="92" as="geometry" />
        </mxCell>
        <mxCell id="RMjqRhRsSfSvSt8cYRa8-33" style="edgeStyle=orthogonalEdgeStyle;rounded=0;orthogonalLoop=1;jettySize=auto;html=1;dashed=1;" edge="1" parent="1" source="RMjqRhRsSfSvSt8cYRa8-29" target="RMjqRhRsSfSvSt8cYRa8-16">
          <mxGeometry relative="1" as="geometry">
            <Array as="points">
              <mxPoint x="722" y="330" />
            </Array>
          </mxGeometry>
        </mxCell>
        <mxCell id="RMjqRhRsSfSvSt8cYRa8-38" style="edgeStyle=orthogonalEdgeStyle;rounded=0;orthogonalLoop=1;jettySize=auto;html=1;" edge="1" parent="1" source="RMjqRhRsSfSvSt8cYRa8-29" target="RMjqRhRsSfSvSt8cYRa8-12">
          <mxGeometry relative="1" as="geometry" />
        </mxCell>
        <mxCell id="RMjqRhRsSfSvSt8cYRa8-45" style="edgeStyle=orthogonalEdgeStyle;rounded=0;orthogonalLoop=1;jettySize=auto;html=1;entryX=1;entryY=0.25;entryDx=0;entryDy=0;" edge="1" parent="1" source="RMjqRhRsSfSvSt8cYRa8-29" target="RMjqRhRsSfSvSt8cYRa8-40">
          <mxGeometry relative="1" as="geometry">
            <Array as="points">
              <mxPoint x="620" y="230" />
              <mxPoint x="620" y="302" />
            </Array>
          </mxGeometry>
        </mxCell>
        <mxCell id="RMjqRhRsSfSvSt8cYRa8-29" value="&lt;br&gt;&lt;br&gt;&lt;br&gt;&lt;br&gt;&lt;br&gt;&lt;br&gt;&lt;br&gt;&lt;br&gt;API REGIS" style="aspect=fixed;sketch=0;html=1;dashed=0;whitespace=wrap;fillColor=#2875E2;strokeColor=#ffffff;points=[[0.005,0.63,0],[0.1,0.2,0],[0.9,0.2,0],[0.5,0,0],[0.995,0.63,0],[0.72,0.99,0],[0.5,1,0],[0.28,0.99,0]];shape=mxgraph.kubernetes.icon2;kubernetesLabel=1;prIcon=api" vertex="1" parent="1">
          <mxGeometry x="680" y="152" width="83.33" height="80" as="geometry" />
        </mxCell>
        <mxCell id="RMjqRhRsSfSvSt8cYRa8-31" style="edgeStyle=orthogonalEdgeStyle;rounded=0;orthogonalLoop=1;jettySize=auto;html=1;entryX=1.139;entryY=0.394;entryDx=0;entryDy=0;entryPerimeter=0;dashed=1;" edge="1" parent="1" source="RMjqRhRsSfSvSt8cYRa8-29" target="RMjqRhRsSfSvSt8cYRa8-18">
          <mxGeometry relative="1" as="geometry">
            <Array as="points">
              <mxPoint x="710" y="332" />
            </Array>
          </mxGeometry>
        </mxCell>
        <mxCell id="RMjqRhRsSfSvSt8cYRa8-39" style="edgeStyle=orthogonalEdgeStyle;rounded=0;orthogonalLoop=1;jettySize=auto;html=1;entryX=0;entryY=0.5;entryDx=0;entryDy=0;" edge="1" parent="1" source="RMjqRhRsSfSvSt8cYRa8-36" target="RMjqRhRsSfSvSt8cYRa8-12">
          <mxGeometry relative="1" as="geometry" />
        </mxCell>
        <mxCell id="RMjqRhRsSfSvSt8cYRa8-44" style="edgeStyle=orthogonalEdgeStyle;rounded=0;orthogonalLoop=1;jettySize=auto;html=1;entryX=1.004;entryY=0.336;entryDx=0;entryDy=0;entryPerimeter=0;" edge="1" parent="1" source="RMjqRhRsSfSvSt8cYRa8-36" target="RMjqRhRsSfSvSt8cYRa8-40">
          <mxGeometry relative="1" as="geometry">
            <Array as="points">
              <mxPoint x="620" y="90" />
              <mxPoint x="620" y="310" />
              <mxPoint x="560" y="310" />
              <mxPoint x="560" y="314" />
            </Array>
          </mxGeometry>
        </mxCell>
        <mxCell id="RMjqRhRsSfSvSt8cYRa8-36" value="&lt;br&gt;&lt;br&gt;&lt;br&gt;&lt;br&gt;&lt;br&gt;&lt;br&gt;&lt;br&gt;API EXISTS" style="aspect=fixed;sketch=0;html=1;dashed=0;whitespace=wrap;fillColor=#2875E2;strokeColor=#ffffff;points=[[0.005,0.63,0],[0.1,0.2,0],[0.9,0.2,0],[0.5,0,0],[0.995,0.63,0],[0.72,0.99,0],[0.5,1,0],[0.28,0.99,0]];shape=mxgraph.kubernetes.icon2;kubernetesLabel=1;prIcon=api" vertex="1" parent="1">
          <mxGeometry x="680" y="15" width="83.33" height="80" as="geometry" />
        </mxCell>
        <mxCell id="RMjqRhRsSfSvSt8cYRa8-40" value="" style="rounded=0;whiteSpace=wrap;html=1;dashed=1;shadow=1;glass=1;" vertex="1" parent="1">
          <mxGeometry x="313.75" y="270" width="246.25" height="130" as="geometry" />
        </mxCell>
        <mxCell id="RMjqRhRsSfSvSt8cYRa8-41" value="Notif Repository" style="sketch=0;points=[[0,0,0],[0.25,0,0],[0.5,0,0],[0.75,0,0],[1,0,0],[0,1,0],[0.25,1,0],[0.5,1,0],[0.75,1,0],[1,1,0],[0,0.25,0],[0,0.5,0],[0,0.75,0],[1,0.25,0],[1,0.5,0],[1,0.75,0]];outlineConnect=0;fontColor=#232F3E;fillColor=#C925D1;strokeColor=#ffffff;dashed=0;verticalLabelPosition=bottom;verticalAlign=top;align=center;html=1;fontSize=12;fontStyle=0;aspect=fixed;shape=mxgraph.aws4.resourceIcon;resIcon=mxgraph.aws4.keyspaces;" vertex="1" parent="1">
          <mxGeometry x="390" y="281" width="78" height="78" as="geometry" />
        </mxCell>
        <mxCell id="RMjqRhRsSfSvSt8cYRa8-42" style="edgeStyle=orthogonalEdgeStyle;rounded=0;orthogonalLoop=1;jettySize=auto;html=1;exitX=0.5;exitY=1;exitDx=0;exitDy=0;exitPerimeter=0;" edge="1" parent="1" source="RMjqRhRsSfSvSt8cYRa8-41" target="RMjqRhRsSfSvSt8cYRa8-41">
          <mxGeometry relative="1" as="geometry" />
        </mxCell>
      </root>
    </mxGraphModel>
  </diagram>
</mxfile>
